<?xml version="1.0" encoding="UTF-8"?>
<svg version="1.1" xmlns="http://www.w3.org/2000/svg" width="512" height="512">
<path d="M0 0 C1.00399841 -0.00145523 2.00799683 -0.00291046 3.04241943 -0.00440979 C5.15363483 -0.00275658 7.264863 0.00873948 9.37597656 0.02954102 C12.61314683 0.05862764 15.84869128 0.05011135 19.0859375 0.03710938 C21.14063297 0.04334331 23.19532329 0.05173154 25.25 0.0625 C26.21875061 0.05956436 27.18750122 0.05662872 28.18560791 0.05360413 C29.08374207 0.0662883 29.98187622 0.07897247 30.90722656 0.09204102 C31.69663635 0.097444 32.48604614 0.10284698 33.29937744 0.1084137 C35.89910811 0.59766851 36.7576978 1.42297568 38.359375 3.49609375 C38.689375 4.48609375 39.019375 5.47609375 39.359375 6.49609375 C42.29839849 6.63091134 45.23127059 6.73008791 48.171875 6.80859375 C49.00525391 6.85048828 49.83863281 6.89238281 50.69726562 6.93554688 C53.01907128 6.98216948 55.086134 6.97718167 57.359375 6.49609375 C59.46743786 4.18054776 59.46743786 4.18054776 60.359375 1.49609375 C62.07822486 -0.22275611 64.27121376 0.36345064 66.56424111 0.34836406 C67.31597047 0.34854842 68.06769983 0.34873278 68.84220886 0.34892273 C69.6351226 0.34524604 70.42803634 0.34156935 71.24497777 0.33778125 C73.92268364 0.32669957 76.60035076 0.32289299 79.27807617 0.3190918 C81.18964767 0.31283045 83.10121794 0.30618395 85.01278687 0.29917908 C90.22163783 0.28173681 95.4304796 0.27120821 100.63935256 0.26297355 C103.89160749 0.25782948 107.14385954 0.25175344 110.39611244 0.24546242 C120.56546361 0.22640005 130.73480747 0.212172 140.90417308 0.20385045 C152.65406345 0.19407777 164.40376544 0.16776177 176.15358943 0.12734956 C185.22709064 0.09721048 194.3005378 0.08238361 203.37408811 0.07906944 C208.79692858 0.0767161 214.21956806 0.06771919 219.64235497 0.04260826 C224.74524845 0.01936171 229.84780814 0.0150806 234.95074081 0.02536964 C236.82363684 0.02586597 238.6965491 0.01951701 240.56939507 0.0058136 C243.1272057 -0.01185399 245.68381183 -0.00482486 248.24162292 0.00834656 C248.98219867 -0.00262269 249.72277442 -0.01359193 250.48579186 -0.02489358 C256.35541517 0.04803896 259.89617137 2.05044264 264.00390625 6.12890625 C267.81497802 10.99790095 268.48472901 13.08662812 268.49080276 19.26910782 C268.4928554 19.9770465 268.49490803 20.68498519 268.49702287 21.41437656 C268.50272284 23.81063093 268.50123195 26.20682837 268.49981689 28.60308838 C268.50239882 30.32883036 268.50541149 32.05457175 268.5088203 33.7803123 C268.51691391 38.54147233 268.51868118 43.30261731 268.51941776 48.06378341 C268.52126424 53.19138607 268.52880952 58.31898085 268.53555298 63.44657898 C268.54915377 74.66757887 268.55516379 85.88857519 268.55956364 97.10958195 C268.56232322 104.11188139 268.56656005 111.11417946 268.57106781 118.11647797 C268.58326295 137.4916284 268.59356165 156.86677772 268.5969429 176.24193192 C268.59716247 177.48278142 268.59738203 178.72363092 268.59760825 180.00208192 C268.59782653 181.24595617 268.59804481 182.48983042 268.5982697 183.77139783 C268.59871317 186.29209725 268.59915974 188.81279667 268.59960938 191.33349609 C268.5998308 192.58385882 268.60005223 193.83422154 268.60028037 195.12247404 C268.60422926 215.38763729 268.62168496 235.65276459 268.6449689 255.91791394 C268.66866374 276.70797581 268.68114391 297.49801964 268.68231082 318.28809524 C268.68322865 329.96733414 268.68900814 341.64652623 268.70713043 353.32575226 C268.72250626 363.27027019 268.72766681 373.21472685 268.71939233 383.1592544 C268.71547683 388.23537572 268.71645917 393.31137354 268.73044968 398.38747978 C268.74313481 403.03234793 268.7420387 407.67699911 268.72985896 412.32186672 C268.72789258 414.00427339 268.73102357 415.68669515 268.73970333 417.36908057 C268.75074207 419.65289038 268.74334625 421.93592719 268.7313118 424.21971512 C268.73190889 425.4891752 268.73250597 426.75863528 268.73312116 428.06656384 C268.14294164 433.48210667 266.07037619 437.38253796 261.859375 440.80859375 C261.2715625 441.29972656 260.68375 441.79085938 260.078125 442.296875 C256.63599729 444.69854138 253.51696834 444.62281456 249.4572382 444.62752151 C248.21712642 444.63136266 246.97701464 444.6352038 245.69932371 444.63916135 C244.31566745 444.63838106 242.93201125 444.63750227 241.5483551 444.63653564 C240.08431178 444.63911855 238.62026916 444.6421315 237.15622753 444.64553905 C233.12316579 444.65362084 229.09012184 444.65539927 225.05705297 444.65613651 C220.71138045 444.65798498 216.36571722 444.66553117 212.02005005 444.67227173 C202.51406521 444.68586308 193.00808458 444.69188077 183.50209165 444.69628239 C177.57002183 444.69904297 171.63795365 444.70327993 165.70588493 444.70778656 C149.29108183 444.71997935 132.87628004 444.73027925 116.46147251 444.73366165 C114.88513694 444.733991 114.88513694 444.733991 113.2769562 444.734327 C111.6967956 444.73465442 111.6967956 444.73465442 110.08471256 444.73498845 C107.94994835 444.73543192 105.81518414 444.73587848 103.68041992 444.73632812 C102.62149742 444.73654955 101.56257493 444.73677098 100.47156387 444.73699912 C83.30257626 444.74094949 66.13363104 444.75841072 48.96465982 444.78168765 C31.34991053 444.80537683 13.73518254 444.81786236 -3.87958294 444.81902957 C-13.77469475 444.8199476 -23.66975132 444.82573229 -33.56484795 444.84384918 C-41.98839728 444.85921724 -50.41187429 444.86439012 -58.83543497 444.85611108 C-63.13564669 444.85219309 -67.43571263 444.85318991 -71.7359066 444.86716843 C-75.66946417 444.87983862 -79.60276538 444.87877097 -83.53632224 444.86657771 C-84.9622725 444.86460872 -86.38824049 444.86775417 -87.81416576 444.87642208 C-89.74696353 444.88743095 -91.67984511 444.87827973 -93.61264706 444.86803055 C-94.6879077 444.86862764 -95.76316833 444.86922472 -96.87101263 444.86983991 C-100.03122389 444.44338427 -101.38622658 443.72174311 -103.640625 441.49609375 C-103.970625 440.50609375 -104.300625 439.51609375 -104.640625 438.49609375 C-107.57964849 438.36127616 -110.51252059 438.26209959 -113.453125 438.18359375 C-114.28650391 438.14169922 -115.11988281 438.09980469 -115.97851562 438.05664062 C-118.30004268 438.01002362 -120.36779771 438.01411847 -122.640625 438.49609375 C-124.67523276 440.82928718 -124.67523276 440.82928718 -125.640625 443.49609375 C-127.92486592 444.63821421 -129.20549008 444.62877202 -131.74430847 444.64326477 C-133.03324509 444.65399773 -133.03324509 444.65399773 -134.34822083 444.66494751 C-135.29315903 444.66763641 -136.23809723 444.67032532 -137.21166992 444.6730957 C-138.20533569 444.6796669 -139.19900146 444.6862381 -140.22277832 444.69300842 C-143.52221751 444.71277249 -146.82161109 444.72441189 -150.12109375 444.734375 C-151.24687647 444.73845053 -152.37265919 444.74252605 -153.53255653 444.74672508 C-159.49281253 444.76760058 -165.45304541 444.78189505 -171.41333008 444.79125977 C-177.56929423 444.80231814 -183.7248963 444.83670759 -189.88073254 444.87643147 C-194.61370005 444.90258437 -199.34658122 444.91095053 -204.07961464 444.91454124 C-206.34858962 444.91941179 -208.61756062 444.93103901 -210.88646507 444.94957924 C-214.06547012 444.97393829 -217.24353753 444.97301102 -220.42260742 444.96606445 C-221.82483299 444.98527954 -221.82483299 444.98527954 -223.25538635 445.00488281 C-230.74289146 444.94535402 -234.56806839 443.14107802 -240.2997303 438.20702553 C-244.26993261 433.25552036 -243.32302665 426.79821141 -243.26881409 420.77555847 C-243.27386079 419.35785392 -243.28109059 417.94015575 -243.29031223 416.5224722 C-243.30924498 412.63104777 -243.29699534 408.74025158 -243.2795893 404.84884298 C-243.26622324 400.65033929 -243.28164981 396.45192799 -243.29341125 392.25343323 C-243.31179938 384.02946901 -243.30326712 375.80574225 -243.28532303 367.5817854 C-243.27129986 360.89672876 -243.26740363 354.21173659 -243.2707653 347.52666664 C-243.27124275 346.57535382 -243.27172019 345.624041 -243.2722121 344.64390052 C-243.27323843 342.71131329 -243.27429379 340.77872607 -243.27537786 338.84613887 C-243.28394766 321.75244026 -243.26726242 304.65885627 -243.23754883 287.56518555 C-243.20872437 270.98277976 -243.20162109 254.40053919 -243.21704102 237.81811523 C-243.23380946 219.76078627 -243.23782975 201.70353578 -243.22033066 183.64620477 C-243.21848628 181.71979257 -243.21665156 179.79338037 -243.21482658 177.86696815 C-243.21391449 176.91915056 -243.2130024 175.97133296 -243.21206268 174.99479362 C-243.20646024 168.32040566 -243.20976186 161.64605603 -243.21637154 154.97167015 C-243.22411055 146.83375461 -243.21733211 138.69600161 -243.1921965 130.55811878 C-243.17971304 126.40710982 -243.17354076 122.25635372 -243.18473816 118.10533524 C-243.19480296 114.3022964 -243.18627372 110.49976107 -243.16315698 106.69678334 C-243.15558137 104.6756632 -243.16752899 102.65449868 -243.18026072 100.63340443 C-243.11376331 93.33517204 -242.32059867 87.84154856 -238.640625 81.49609375 C-238.22121519 80.75549703 -237.80180538 80.01490032 -237.36968619 79.25186127 C-234.93838873 75.07152549 -232.24552241 71.75766759 -228.640625 68.49609375 C-228.15078125 68.01398438 -227.6609375 67.531875 -227.15625 67.03515625 C-217.66959409 58.13576951 -205.48449384 55.20837598 -192.828125 55.17724609 C-191.88086044 55.16720047 -190.93359589 55.15715485 -189.95762634 55.14680481 C-186.85196494 55.11611487 -183.74638918 55.09897725 -180.640625 55.08203125 C-178.4772875 55.06330819 -176.31395721 55.04373393 -174.15063477 55.02334595 C-168.47573104 54.97213909 -162.80080367 54.93245216 -157.12579346 54.89520264 C-151.32729294 54.85509112 -145.52888982 54.80403143 -139.73046875 54.75390625 C-128.36725603 54.65728252 -117.00398818 54.57283449 -105.640625 54.49609375 C-105.31376709 53.53832031 -104.98690918 52.58054688 -104.65014648 51.59375 C-103.41848879 48.00121324 -102.16195721 44.41778103 -100.89819336 40.83642578 C-100.35731656 39.29285777 -99.82298055 37.7469801 -99.2956543 36.19873047 C-92.91275623 17.49086083 -92.91275623 17.49086083 -84.8805542 12.37509155 C-78.82926823 9.58082185 -72.04942085 10.10936802 -65.53125 10.16015625 C-62.97786199 10.14765403 -60.42447655 10.13461739 -57.87109375 10.12109375 C-53.86594991 10.11715022 -49.86106526 10.12058556 -45.85595703 10.13574219 C-41.97650648 10.14428201 -38.0981078 10.1226931 -34.21875 10.09765625 C-33.01768616 10.11100006 -31.81662231 10.12434387 -30.5791626 10.13809204 C-24.31642842 10.33941773 -24.31642842 10.33941773 -19.29199219 7.20849609 C-18.74704102 6.31340332 -18.20208984 5.41831055 -17.640625 4.49609375 C-11.81910445 0.19076694 -7.11130346 -0.08316028 0 0 Z " fill="#FC5F95" transform="translate(242.640625,34.50390625)"/>
<path d="M0 0 C1.00399841 -0.00145523 2.00799683 -0.00291046 3.04241943 -0.00440979 C5.15363483 -0.00275658 7.264863 0.00873948 9.37597656 0.02954102 C12.61314683 0.05862764 15.84869128 0.05011135 19.0859375 0.03710938 C21.14063297 0.04334331 23.19532329 0.05173154 25.25 0.0625 C26.21875061 0.05956436 27.18750122 0.05662872 28.18560791 0.05360413 C29.08374207 0.0662883 29.98187622 0.07897247 30.90722656 0.09204102 C31.69663635 0.097444 32.48604614 0.10284698 33.29937744 0.1084137 C35.89910811 0.59766851 36.7576978 1.42297568 38.359375 3.49609375 C38.689375 4.48609375 39.019375 5.47609375 39.359375 6.49609375 C42.29839849 6.63091134 45.23127059 6.73008791 48.171875 6.80859375 C49.00525391 6.85048828 49.83863281 6.89238281 50.69726562 6.93554688 C53.01907128 6.98216948 55.086134 6.97718167 57.359375 6.49609375 C59.46743786 4.18054776 59.46743786 4.18054776 60.359375 1.49609375 C62.07822486 -0.22275611 64.27121376 0.36345064 66.56424111 0.34836406 C67.31597047 0.34854842 68.06769983 0.34873278 68.84220886 0.34892273 C69.6351226 0.34524604 70.42803634 0.34156935 71.24497777 0.33778125 C73.92268364 0.32669957 76.60035076 0.32289299 79.27807617 0.3190918 C81.18964767 0.31283045 83.10121794 0.30618395 85.01278687 0.29917908 C90.22163783 0.28173681 95.4304796 0.27120821 100.63935256 0.26297355 C103.89160749 0.25782948 107.14385954 0.25175344 110.39611244 0.24546242 C120.56546361 0.22640005 130.73480747 0.212172 140.90417308 0.20385045 C152.65406345 0.19407777 164.40376544 0.16776177 176.15358943 0.12734956 C185.22709064 0.09721048 194.3005378 0.08238361 203.37408811 0.07906944 C208.79692858 0.0767161 214.21956806 0.06771919 219.64235497 0.04260826 C224.74524845 0.01936171 229.84780814 0.0150806 234.95074081 0.02536964 C236.82363684 0.02586597 238.6965491 0.01951701 240.56939507 0.0058136 C243.1272057 -0.01185399 245.68381183 -0.00482486 248.24162292 0.00834656 C248.98219867 -0.00262269 249.72277442 -0.01359193 250.48579186 -0.02489358 C256.35541517 0.04803896 259.89617137 2.05044264 264.00390625 6.12890625 C267.81497802 10.99790095 268.48472901 13.08662812 268.49080276 19.26910782 C268.4928554 19.9770465 268.49490803 20.68498519 268.49702287 21.41437656 C268.50272284 23.81063093 268.50123195 26.20682837 268.49981689 28.60308838 C268.50239882 30.32883036 268.50541149 32.05457175 268.5088203 33.7803123 C268.51691391 38.54147233 268.51868118 43.30261731 268.51941776 48.06378341 C268.52126424 53.19138607 268.52880952 58.31898085 268.53555298 63.44657898 C268.54915377 74.66757887 268.55516379 85.88857519 268.55956364 97.10958195 C268.56232322 104.11188139 268.56656005 111.11417946 268.57106781 118.11647797 C268.58326295 137.4916284 268.59356165 156.86677772 268.5969429 176.24193192 C268.59716247 177.48278142 268.59738203 178.72363092 268.59760825 180.00208192 C268.59782653 181.24595617 268.59804481 182.48983042 268.5982697 183.77139783 C268.59871317 186.29209725 268.59915974 188.81279667 268.59960938 191.33349609 C268.5998308 192.58385882 268.60005223 193.83422154 268.60028037 195.12247404 C268.60422926 215.38763729 268.62168496 235.65276459 268.6449689 255.91791394 C268.66866374 276.70797581 268.68114391 297.49801964 268.68231082 318.28809524 C268.68322865 329.96733414 268.68900814 341.64652623 268.70713043 353.32575226 C268.72250626 363.27027019 268.72766681 373.21472685 268.71939233 383.1592544 C268.71547683 388.23537572 268.71645917 393.31137354 268.73044968 398.38747978 C268.74313481 403.03234793 268.7420387 407.67699911 268.72985896 412.32186672 C268.72789258 414.00427339 268.73102357 415.68669515 268.73970333 417.36908057 C268.75074207 419.65289038 268.74334625 421.93592719 268.7313118 424.21971512 C268.73190889 425.4891752 268.73250597 426.75863528 268.73312116 428.06656384 C268.14294164 433.48210667 266.07037619 437.38253796 261.859375 440.80859375 C261.2715625 441.29972656 260.68375 441.79085938 260.078125 442.296875 C256.63599729 444.69854138 253.51696834 444.62281456 249.4572382 444.62752151 C248.21712642 444.63136266 246.97701464 444.6352038 245.69932371 444.63916135 C244.31566745 444.63838106 242.93201125 444.63750227 241.5483551 444.63653564 C240.08431178 444.63911855 238.62026916 444.6421315 237.15622753 444.64553905 C233.12316579 444.65362084 229.09012184 444.65539927 225.05705297 444.65613651 C220.71138045 444.65798498 216.36571722 444.66553117 212.02005005 444.67227173 C202.51406521 444.68586308 193.00808458 444.69188077 183.50209165 444.69628239 C177.57002183 444.69904297 171.63795365 444.70327993 165.70588493 444.70778656 C149.29108183 444.71997935 132.87628004 444.73027925 116.46147251 444.73366165 C114.88513694 444.733991 114.88513694 444.733991 113.2769562 444.734327 C111.6967956 444.73465442 111.6967956 444.73465442 110.08471256 444.73498845 C107.94994835 444.73543192 105.81518414 444.73587848 103.68041992 444.73632812 C102.62149742 444.73654955 101.56257493 444.73677098 100.47156387 444.73699912 C83.30257626 444.74094949 66.13363104 444.75841072 48.96465982 444.78168765 C31.34991053 444.80537683 13.73518254 444.81786236 -3.87958294 444.81902957 C-13.77469475 444.8199476 -23.66975132 444.82573229 -33.56484795 444.84384918 C-41.98839728 444.85921724 -50.41187429 444.86439012 -58.83543497 444.85611108 C-63.13564669 444.85219309 -67.43571263 444.85318991 -71.7359066 444.86716843 C-75.66946417 444.87983862 -79.60276538 444.87877097 -83.53632224 444.86657771 C-84.9622725 444.86460872 -86.38824049 444.86775417 -87.81416576 444.87642208 C-89.74696353 444.88743095 -91.67984511 444.87827973 -93.61264706 444.86803055 C-94.6879077 444.86862764 -95.76316833 444.86922472 -96.87101263 444.86983991 C-100.00977976 444.44627805 -101.36496404 443.65783538 -103.640625 441.49609375 C-104.86939257 438.86302039 -104.71164925 437.73875994 -103.890625 434.93359375 C-102.62583384 432.467251 -101.82493163 431.17220281 -99.640625 429.49609375 C-97.01855791 429.1182369 -97.01855791 429.1182369 -93.79257774 429.11412621 C-92.56454945 429.10528636 -91.33652116 429.09644652 -90.07127988 429.08733881 C-88.7012766 429.09265997 -87.33127436 429.09825543 -85.96127319 429.10409546 C-84.51158706 429.09937518 -83.0619047 429.09333769 -81.61222899 429.08609164 C-77.61892754 429.06994666 -73.62582009 429.07250917 -69.63249779 429.07801294 C-65.32980682 429.08068703 -61.02717122 429.06611797 -56.72450256 429.05357361 C-49.2664033 429.03416015 -41.80835468 429.02561002 -34.35023117 429.02427292 C-23.56587872 429.02223683 -12.78161245 429.00279675 -1.9972889 428.978875 C15.49984523 428.94044459 32.99697355 428.91465022 50.49414062 428.89746094 C67.49121925 428.88072256 84.4882852 428.8605444 101.48535156 428.83398438 C102.53243344 428.83235095 103.57951531 428.83071753 104.65832694 428.82903461 C116.08042979 428.81108096 127.50252965 428.79173643 138.9246273 428.77073097 C139.92739961 428.76888955 140.93017192 428.76704813 141.96333127 428.76515091 C145.97106908 428.75777256 149.97880685 428.75037918 153.9865443 428.74280711 C165.73970093 428.72063614 177.49284513 428.70284799 189.24601875 428.6928543 C196.6140212 428.68648854 203.98201462 428.6769517 211.35000993 428.66488574 C215.6072678 428.65808027 219.86451108 428.65302157 224.12177467 428.65229988 C228.01254438 428.65163548 231.90328056 428.64649932 235.79404013 428.63769861 C237.20781978 428.63533751 238.62160349 428.63470415 240.03538461 428.63589542 C241.94459522 428.63727999 243.8538073 428.63203778 245.76301003 428.62637901 C246.82725877 428.62534719 247.89150752 428.62431536 248.98800623 428.62325227 C251.31486914 428.76334294 251.31486914 428.76334294 252.359375 427.49609375 C252.45765841 425.74555896 252.48493106 423.99101595 252.48521614 422.2377243 C252.48782389 421.09031281 252.49043164 419.94290132 252.49311841 418.76071978 C252.49088768 417.48419275 252.48865696 416.20766572 252.48635864 414.89245605 C252.48750951 413.53524595 252.4890968 412.17803615 252.49108589 410.82082701 C252.49528391 407.07389081 252.4931864 403.32697988 252.49009967 399.58004355 C252.4878477 395.54591937 252.49132416 391.51179969 252.49407959 387.47767639 C252.49853847 379.56794663 252.4975603 371.65822632 252.49466695 363.74849617 C252.49241338 357.32308825 252.49210019 350.89768299 252.49319077 344.47227478 C252.493344 343.55960515 252.49349723 342.64693551 252.49365511 341.70660922 C252.49397482 339.85284348 252.49429903 337.99907775 252.4946277 336.14531201 C252.49748284 318.74106507 252.49419494 301.33682339 252.48882733 283.93257731 C252.48435926 268.98190438 252.48513519 254.0312392 252.48974609 239.08056641 C252.49509126 221.74082769 252.49720814 204.40109359 252.49413383 187.06135416 C252.49381526 185.21420701 252.49350089 183.36705987 252.49319077 181.51991272 C252.49303649 180.61095614 252.49288221 179.70199956 252.49272326 178.76549885 C252.49185794 172.34390383 252.49332132 165.92231173 252.49567032 159.50071716 C252.49846788 151.68054791 252.49773099 143.86038871 252.49238957 136.04022062 C252.48975196 132.04625862 252.48874849 128.05231341 252.49203873 124.05835152 C252.49500048 120.40805972 252.49341092 116.75780039 252.48806117 113.10751158 C252.48640028 111.14883027 252.48969563 109.19014674 252.49311841 107.23146772 C252.48920678 105.51035048 252.48920678 105.51035048 252.48521614 103.7544632 C252.48505379 102.75596108 252.48489144 101.75745896 252.48472416 100.72869921 C252.60969181 98.52429156 252.60969181 98.52429156 251.359375 97.49609375 C248.33683507 97.39203337 245.3363926 97.35248477 242.31323242 97.35424805 C240.88887627 97.34903641 240.88887627 97.34903641 239.43574524 97.34371948 C237.36607135 97.33634753 235.29638947 97.33100985 233.22670555 97.32742882 C229.95317984 97.32028705 226.6798061 97.3046378 223.40632629 97.28608704 C214.09634488 97.23350941 204.78644503 97.18562626 195.47631836 97.17016602 C189.78863003 97.1600998 184.10132085 97.13080757 178.41378212 97.08884621 C176.24286069 97.07650956 174.07188575 97.07141978 171.9009304 97.07364464 C168.86477412 97.07599034 165.82971015 97.05388571 162.79370117 97.02612305 C161.44307083 97.03602516 161.44307083 97.03602516 160.06515503 97.04612732 C154.00316446 96.95491916 154.00316446 96.95491916 150.76972961 94.65046692 C149.359375 92.49609375 149.359375 92.49609375 149.359375 89.49609375 C142.759375 89.49609375 136.159375 89.49609375 129.359375 89.49609375 C129.029375 90.81609375 128.699375 92.13609375 128.359375 93.49609375 C127.26269531 95.22402954 127.26269531 95.22402954 125.359375 96.49609375 C122.79379737 96.77977466 120.47076864 96.8824963 117.90625 96.84912109 C117.14985229 96.85128128 116.39345459 96.85344147 115.61413574 96.85566711 C113.97228955 96.85875446 112.33042028 96.85514707 110.68859863 96.84565353 C108.09129741 96.83193577 105.49476196 96.83833936 102.89746094 96.85049438 C95.51362104 96.8814914 88.12995837 96.87654862 80.74609375 96.85644531 C76.22963978 96.84554564 71.71376161 96.85867844 67.1973877 96.88634109 C65.47497925 96.89179192 63.75251356 96.8876916 62.03015137 96.87394333 C59.62362586 96.85495531 57.21899153 96.86625461 54.8125 96.88427734 C53.74171204 96.86426918 53.74171204 96.86426918 52.64929199 96.84385681 C50.42705952 96.82531792 50.42705952 96.82531792 47.359375 97.49609375 C45.37681342 99.67521697 45.37681342 99.67521697 44.359375 102.49609375 C44.03844879 103.26192276 43.71752258 104.02775177 43.38687134 104.81678772 C42.96648087 106.00781349 42.96648087 106.00781349 42.53759766 107.22290039 C42.05161606 108.58439964 42.05161606 108.58439964 41.55581665 109.97340393 C41.21513153 110.94124313 40.87444641 111.90908234 40.5234375 112.90625 C39.7818621 114.96831919 39.03965533 117.03016141 38.296875 119.09179688 C37.13599054 122.3307137 35.97995991 125.57110473 34.83496094 128.81567383 C33.72427433 131.95524318 32.59415226 135.0872539 31.4609375 138.21875 C30.95598251 139.67354515 30.95598251 139.67354515 30.44082642 141.1577301 C30.11053436 142.06224411 29.78024231 142.96675812 29.43994141 143.89868164 C29.1580899 144.69190323 28.8762384 145.48512482 28.58584595 146.30238342 C26.89266028 149.3308766 25.3100705 150.6277055 22.359375 152.49609375 C19.33213751 153.07268543 16.3576226 153.02591206 13.28352356 152.98815918 C12.36750781 152.99283817 11.45149207 152.99751716 10.50771827 153.00233793 C7.43690721 153.01327458 4.36691495 152.9957749 1.29614258 152.97851562 C-0.90509279 152.98070138 -3.10632701 152.98469794 -5.30755615 152.9903717 C-10.04935166 152.99894203 -14.79092092 152.99514491 -19.53270531 152.98194885 C-27.03403009 152.96162762 -34.5351264 152.97158371 -42.03645325 152.98620605 C-52.55727297 153.00388987 -63.07804562 153.01050843 -73.59887695 153.00537109 C-74.26631466 153.00505046 -74.93375238 153.00472983 -75.62141547 153.00439948 C-81.03388141 153.0016881 -86.44634684 152.99825845 -91.85881233 152.99479389 C-96.58271393 152.99179966 -101.30661557 152.98909091 -106.03051758 152.98681641 C-106.69562393 152.9864909 -107.36073029 152.98616538 -108.04599138 152.98583001 C-119.15424644 152.98087987 -130.26244156 152.99176197 -141.37067682 153.01338816 C-148.82353569 153.02675168 -156.27605239 153.02081483 -163.72889078 153.00002289 C-168.37287139 152.99102309 -173.01672077 152.99852391 -177.66069031 153.0104351 C-179.80926268 153.01256202 -181.95785467 153.00786746 -184.10639381 152.99572945 C-187.04789905 152.980053 -189.98836828 152.98913013 -192.92985535 153.00402832 C-193.7727797 152.99353942 -194.61570405 152.98305053 -195.48417157 152.97224379 C-205.027821 153.07930163 -212.79334095 156.69223705 -219.66015625 163.21875 C-227.24656377 171.94237048 -227.79410044 181.56147048 -227.76760864 192.6322937 C-227.76916863 193.63803944 -227.77072862 194.64378517 -227.77233589 195.68000805 C-227.77631673 199.04173262 -227.77316759 202.40341183 -227.77001953 205.76513672 C-227.77137481 208.17830939 -227.77315546 210.59148186 -227.77532959 213.00465393 C-227.77941435 218.87217806 -227.77881913 224.73969046 -227.77591695 230.60721426 C-227.77365712 235.37343977 -227.77335291 240.1396617 -227.77444077 244.9058876 C-227.774594 245.58461396 -227.77474723 246.26334031 -227.77490511 246.96263412 C-227.77522483 248.34144266 -227.77554905 249.72025119 -227.7758777 251.09905972 C-227.77872686 264.0167245 -227.77545363 276.93438217 -227.77007733 289.85204579 C-227.76560374 300.94466168 -227.76639088 312.03726711 -227.77099609 323.12988281 C-227.77634137 336.01113149 -227.77845861 348.89237396 -227.77538383 361.77362359 C-227.77506527 363.14548055 -227.7747509 364.51733752 -227.77444077 365.88919449 C-227.77428649 366.56419588 -227.77413221 367.23919727 -227.77397326 367.93465324 C-227.77310842 372.70021015 -227.77457016 377.46576313 -227.77692032 382.23131943 C-227.78000902 388.63511396 -227.77782687 395.03889332 -227.77202606 401.44268608 C-227.77069777 403.79983042 -227.77109373 406.15697641 -227.77328873 408.5141201 C-227.77599734 411.71670162 -227.77262276 414.91921833 -227.76760864 418.12179565 C-227.76983936 419.06739031 -227.77207009 420.01298496 -227.77436841 420.987234 C-228.17761559 425.06434919 -228.17761559 425.06434919 -226.640625 428.49609375 C-223.58755848 428.6001691 -220.55636787 428.63970235 -217.50268555 428.63793945 C-216.54336121 428.64141388 -215.58403687 428.64488831 -214.59564209 428.64846802 C-212.50468721 428.65584004 -210.41372443 428.66117768 -208.32275963 428.66475868 C-205.01562964 428.6719003 -201.7086501 428.68754943 -198.40156555 428.70610046 C-188.99600287 428.7586789 -179.59052092 428.80656164 -170.18481445 428.82202148 C-164.4387732 428.83208738 -158.69310729 428.86137881 -152.94721413 428.90334129 C-150.7539637 428.91567837 -148.56066032 428.92076764 -146.36737633 428.91854286 C-143.30009115 428.91619731 -140.2338874 428.93830073 -137.16674805 428.96606445 C-136.25697708 428.95946304 -135.34720612 428.95286163 -134.40986633 428.94606018 C-128.25893579 429.03767624 -128.25893579 429.03767624 -125.10383606 431.37687683 C-123.35964457 433.90304698 -122.71574155 435.41631504 -122.640625 438.49609375 C-124.83465485 443.09310868 -124.83465485 443.09310868 -127.640625 444.49609375 C-129.00575242 444.59593883 -130.3755569 444.6354513 -131.74430847 444.64326477 C-133.03324509 444.65399773 -133.03324509 444.65399773 -134.34822083 444.66494751 C-135.29315903 444.66763641 -136.23809723 444.67032532 -137.21166992 444.6730957 C-138.20533569 444.6796669 -139.19900146 444.6862381 -140.22277832 444.69300842 C-143.52221751 444.71277249 -146.82161109 444.72441189 -150.12109375 444.734375 C-151.24687647 444.73845053 -152.37265919 444.74252605 -153.53255653 444.74672508 C-159.49281253 444.76760058 -165.45304541 444.78189505 -171.41333008 444.79125977 C-177.56929423 444.80231814 -183.7248963 444.83670759 -189.88073254 444.87643147 C-194.61370005 444.90258437 -199.34658122 444.91095053 -204.07961464 444.91454124 C-206.34858962 444.91941179 -208.61756062 444.93103901 -210.88646507 444.94957924 C-214.06547012 444.97393829 -217.24353753 444.97301102 -220.42260742 444.96606445 C-221.82483299 444.98527954 -221.82483299 444.98527954 -223.25538635 445.00488281 C-230.74289146 444.94535402 -234.56806839 443.14107802 -240.2997303 438.20702553 C-244.26993261 433.25552036 -243.32302665 426.79821141 -243.26881409 420.77555847 C-243.27386079 419.35785392 -243.28109059 417.94015575 -243.29031223 416.5224722 C-243.30924498 412.63104777 -243.29699534 408.74025158 -243.2795893 404.84884298 C-243.26622324 400.65033929 -243.28164981 396.45192799 -243.29341125 392.25343323 C-243.31179938 384.02946901 -243.30326712 375.80574225 -243.28532303 367.5817854 C-243.27129986 360.89672876 -243.26740363 354.21173659 -243.2707653 347.52666664 C-243.27124275 346.57535382 -243.27172019 345.624041 -243.2722121 344.64390052 C-243.27323843 342.71131329 -243.27429379 340.77872607 -243.27537786 338.84613887 C-243.28394766 321.75244026 -243.26726242 304.65885627 -243.23754883 287.56518555 C-243.20872437 270.98277976 -243.20162109 254.40053919 -243.21704102 237.81811523 C-243.23380946 219.76078627 -243.23782975 201.70353578 -243.22033066 183.64620477 C-243.21848628 181.71979257 -243.21665156 179.79338037 -243.21482658 177.86696815 C-243.21391449 176.91915056 -243.2130024 175.97133296 -243.21206268 174.99479362 C-243.20646024 168.32040566 -243.20976186 161.64605603 -243.21637154 154.97167015 C-243.22411055 146.83375461 -243.21733211 138.69600161 -243.1921965 130.55811878 C-243.17971304 126.40710982 -243.17354076 122.25635372 -243.18473816 118.10533524 C-243.19480296 114.3022964 -243.18627372 110.49976107 -243.16315698 106.69678334 C-243.15558137 104.6756632 -243.16752899 102.65449868 -243.18026072 100.63340443 C-243.11376331 93.33517204 -242.32059867 87.84154856 -238.640625 81.49609375 C-238.22121519 80.75549703 -237.80180538 80.01490032 -237.36968619 79.25186127 C-234.93838873 75.07152549 -232.24552241 71.75766759 -228.640625 68.49609375 C-228.15078125 68.01398438 -227.6609375 67.531875 -227.15625 67.03515625 C-217.66959409 58.13576951 -205.48449384 55.20837598 -192.828125 55.17724609 C-191.88086044 55.16720047 -190.93359589 55.15715485 -189.95762634 55.14680481 C-186.85196494 55.11611487 -183.74638918 55.09897725 -180.640625 55.08203125 C-178.4772875 55.06330819 -176.31395721 55.04373393 -174.15063477 55.02334595 C-168.47573104 54.97213909 -162.80080367 54.93245216 -157.12579346 54.89520264 C-151.32729294 54.85509112 -145.52888982 54.80403143 -139.73046875 54.75390625 C-128.36725603 54.65728252 -117.00398818 54.57283449 -105.640625 54.49609375 C-105.31376709 53.53832031 -104.98690918 52.58054688 -104.65014648 51.59375 C-103.41848879 48.00121324 -102.16195721 44.41778103 -100.89819336 40.83642578 C-100.35731656 39.29285777 -99.82298055 37.7469801 -99.2956543 36.19873047 C-92.91275623 17.49086083 -92.91275623 17.49086083 -84.8805542 12.37509155 C-78.82926823 9.58082185 -72.04942085 10.10936802 -65.53125 10.16015625 C-62.97786199 10.14765403 -60.42447655 10.13461739 -57.87109375 10.12109375 C-53.86594991 10.11715022 -49.86106526 10.12058556 -45.85595703 10.13574219 C-41.97650648 10.14428201 -38.0981078 10.1226931 -34.21875 10.09765625 C-33.01768616 10.11100006 -31.81662231 10.12434387 -30.5791626 10.13809204 C-24.31642842 10.33941773 -24.31642842 10.33941773 -19.29199219 7.20849609 C-18.74704102 6.31340332 -18.20208984 5.41831055 -17.640625 4.49609375 C-11.81910445 0.19076694 -7.11130346 -0.08316028 0 0 Z " fill="#D63D80" transform="translate(242.640625,34.50390625)"/>
<path d="M0 0 C1.00399841 -0.00145523 2.00799683 -0.00291046 3.04241943 -0.00440979 C5.15363483 -0.00275658 7.264863 0.00873948 9.37597656 0.02954102 C12.61314683 0.05862764 15.84869128 0.05011135 19.0859375 0.03710938 C21.14063297 0.04334331 23.19532329 0.05173154 25.25 0.0625 C26.21875061 0.05956436 27.18750122 0.05662872 28.18560791 0.05360413 C29.08374207 0.0662883 29.98187622 0.07897247 30.90722656 0.09204102 C31.69663635 0.097444 32.48604614 0.10284698 33.29937744 0.1084137 C35.8739845 0.59294039 36.74408325 1.47535207 38.359375 3.49609375 C39.50531967 6.14058144 39.42692482 7.26529855 38.609375 10.05859375 C37.37158117 12.47229171 36.44009355 13.79188888 34.359375 15.49609375 C32.4420929 15.89482117 32.4420929 15.89482117 30.25512695 15.9284668 C29.0241906 15.95815804 29.0241906 15.95815804 27.76838684 15.9884491 C26.88704575 15.99483902 26.00570465 16.00122894 25.09765625 16.0078125 C24.19186325 16.0257637 23.28607025 16.0437149 22.35282898 16.06221008 C19.45922504 16.11640034 16.56578685 16.15023661 13.671875 16.18359375 C11.71026335 16.21675914 9.74867359 16.25124807 7.78710938 16.28710938 C2.97798403 16.37213181 -1.83109141 16.43890135 -6.640625 16.49609375 C-8.0576694 20.20878143 -9.47256648 23.92228071 -10.88549805 27.63653564 C-11.38791403 28.95694104 -11.89067959 30.27721348 -12.39379883 31.59735107 C-15.00398112 38.44939543 -17.59329289 45.30475536 -20.046875 52.21484375 C-20.40394531 53.2188623 -20.76101562 54.22288086 -21.12890625 55.25732422 C-21.79003709 57.12872015 -22.44400236 59.00266716 -23.08984375 60.87939453 C-23.38503906 61.7145459 -23.68023437 62.54969727 -23.984375 63.41015625 C-24.23380859 64.13154785 -24.48324219 64.85293945 -24.74023438 65.59619141 C-25.8257626 67.88675014 -26.5999198 68.96112899 -28.640625 70.49609375 C-31.65240574 70.87247467 -31.65240574 70.87247467 -35.42591858 70.87463379 C-36.46661118 70.88142898 -36.46661118 70.88142898 -37.52832788 70.88836145 C-39.85899979 70.9000118 -42.18910065 70.89032795 -44.51977539 70.88085938 C-46.18870414 70.88496351 -47.85763002 70.89042344 -49.52655029 70.8971405 C-53.1246345 70.90888193 -56.72256525 70.91134384 -60.32066536 70.90678406 C-66.01556868 70.89998151 -71.71026986 70.91583231 -77.40513611 70.93518066 C-89.50445479 70.97308093 -101.60375608 70.98583092 -113.703125 70.99609375 C-126.74117411 71.00716888 -139.77913021 71.02261185 -152.81711572 71.06680632 C-158.47190065 71.08511905 -164.12645508 71.08906993 -169.78126252 71.08187103 C-173.31081717 71.08034308 -176.8402579 71.09117222 -180.36978149 71.1052494 C-181.9990998 71.10923349 -183.62844009 71.10815894 -185.25774956 71.10147667 C-198.95977214 71.049627 -209.06554561 72.39740766 -219.328125 82.08984375 C-226.89342839 90.10906534 -228.23390486 99.18909783 -228.03125 109.84765625 C-228.02559021 110.98770111 -228.01993042 112.12774597 -228.01409912 113.30233765 C-227.99188159 116.90903442 -227.94171113 120.51470215 -227.890625 124.12109375 C-227.87054117 126.58071472 -227.85229372 129.04035142 -227.8359375 131.5 C-227.79206485 137.49904328 -227.72530026 143.49749496 -227.640625 149.49609375 C-227.10808105 149.08907227 -226.57553711 148.68205078 -226.02685547 148.26269531 C-225.31932129 147.72612305 -224.61178711 147.18955078 -223.8828125 146.63671875 C-223.18526855 146.10594727 -222.48772461 145.57517578 -221.76904297 145.02832031 C-213.76388986 139.26549158 -205.40774154 137.43237694 -195.640625 137.49609375 C-195.66157227 136.67931152 -195.68251953 135.8625293 -195.70410156 135.02099609 C-195.7874763 131.3044882 -195.83935488 127.58817742 -195.890625 123.87109375 C-195.92414063 122.58589844 -195.95765625 121.30070312 -195.9921875 119.9765625 C-196.11440951 108.18213811 -196.11440951 108.18213811 -191.640625 103.49609375 C-185.85133364 98.28573152 -181.79538905 97.2005299 -174.07330322 97.25558472 C-172.76348169 97.25302144 -172.76348169 97.25302144 -171.42719913 97.25040638 C-168.49597943 97.24710744 -165.56498774 97.2581219 -162.63378906 97.26904297 C-160.53470363 97.26960699 -158.4356178 97.26929069 -156.33653259 97.26815796 C-150.63237149 97.26758311 -144.92829416 97.27935883 -139.22415257 97.29330587 C-133.26506027 97.30579121 -127.30596615 97.306982 -121.34686279 97.30935669 C-110.05990866 97.31557792 -98.77299318 97.33199745 -87.48605609 97.35205567 C-74.63736191 97.37439465 -61.7886659 97.38540306 -48.93995714 97.39544654 C-22.50682498 97.41636311 3.92627284 97.45155159 30.359375 97.49609375 C30.49657959 96.71508301 30.63378418 95.93407227 30.77514648 95.12939453 C31.44429736 92.11332207 32.41860663 90.69835313 34.421875 88.37109375 C34.96972656 87.70851563 35.51757812 87.0459375 36.08203125 86.36328125 C41.41543502 81.99043905 47.5507717 81.04832131 54.2565918 81.10791016 C55.00075348 81.1026532 55.74491516 81.09739624 56.5116272 81.09197998 C58.94416988 81.07889479 61.37604573 81.08747389 63.80859375 81.09765625 C65.511542 81.09563285 67.2144894 81.09271919 68.91743469 81.08895874 C72.4737682 81.08455152 76.02987465 81.09091695 79.58618164 81.10498047 C84.13915568 81.12211071 88.69160061 81.11219695 93.24455547 81.09426308 C96.75590493 81.08341517 100.26712918 81.08687551 103.77848244 81.09464645 C105.45737585 81.09664365 107.13628073 81.09420609 108.81516075 81.08720779 C111.16052728 81.07957221 113.50503883 81.09122443 115.8503418 81.10791016 C116.53980392 81.10183746 117.22926605 81.09576477 117.93962097 81.08950806 C122.62701499 81.15115725 125.99208344 82.12880219 129.359375 85.49609375 C129.94157754 91.66744065 129.94157754 91.66744065 127.8127594 94.69740295 C124.52197097 97.11003379 121.71745056 97.03384882 117.79272461 96.96264648 C116.65790901 96.9661058 116.65790901 96.9661058 115.50016785 96.96963501 C113.8610589 96.97226132 112.22191592 96.96583469 110.58286858 96.95138359 C107.98957355 96.92950063 105.39744507 96.93321139 102.80409241 96.94386292 C96.36598166 96.96553424 89.9281307 96.94812288 83.49005127 96.92236328 C78.04593049 96.90099377 72.602557 96.89896442 67.15844917 96.92527962 C64.60148795 96.92964099 62.04581374 96.90496456 59.48899841 96.87974548 C57.92486999 96.88501475 56.36074555 96.8917362 54.79663086 96.90014648 C54.08434326 96.88523666 53.37205566 96.87032684 52.63818359 96.85496521 C50.42098836 96.83147095 50.42098836 96.83147095 47.359375 97.49609375 C45.37767576 99.67465451 45.37767576 99.67465451 44.359375 102.49609375 C44.03844879 103.26192276 43.71752258 104.02775177 43.38687134 104.81678772 C42.96648087 106.00781349 42.96648087 106.00781349 42.53759766 107.22290039 C42.05161606 108.58439964 42.05161606 108.58439964 41.55581665 109.97340393 C41.21513153 110.94124313 40.87444641 111.90908234 40.5234375 112.90625 C39.7818621 114.96831919 39.03965533 117.03016141 38.296875 119.09179688 C37.13599054 122.3307137 35.97995991 125.57110473 34.83496094 128.81567383 C33.72427433 131.95524318 32.59415226 135.0872539 31.4609375 138.21875 C30.95598251 139.67354515 30.95598251 139.67354515 30.44082642 141.1577301 C30.11053436 142.06224411 29.78024231 142.96675812 29.43994141 143.89868164 C29.1580899 144.69190323 28.8762384 145.48512482 28.58584595 146.30238342 C26.89266028 149.3308766 25.3100705 150.6277055 22.359375 152.49609375 C19.33213751 153.07268543 16.3576226 153.02591206 13.28352356 152.98815918 C12.36750781 152.99283817 11.45149207 152.99751716 10.50771827 153.00233793 C7.43690721 153.01327458 4.36691495 152.9957749 1.29614258 152.97851562 C-0.90509279 152.98070138 -3.10632701 152.98469794 -5.30755615 152.9903717 C-10.04935166 152.99894203 -14.79092092 152.99514491 -19.53270531 152.98194885 C-27.03403009 152.96162762 -34.5351264 152.97158371 -42.03645325 152.98620605 C-52.55727297 153.00388987 -63.07804562 153.01050843 -73.59887695 153.00537109 C-74.26631466 153.00505046 -74.93375238 153.00472983 -75.62141547 153.00439948 C-81.03388141 153.0016881 -86.44634684 152.99825845 -91.85881233 152.99479389 C-96.58271393 152.99179966 -101.30661557 152.98909091 -106.03051758 152.98681641 C-106.69562393 152.9864909 -107.36073029 152.98616538 -108.04599138 152.98583001 C-119.15424644 152.98087987 -130.26244156 152.99176197 -141.37067682 153.01338816 C-148.82353569 153.02675168 -156.27605239 153.02081483 -163.72889078 153.00002289 C-168.37287139 152.99102309 -173.01672077 152.99852391 -177.66069031 153.0104351 C-179.80926268 153.01256202 -181.95785467 153.00786746 -184.10639381 152.99572945 C-187.04789905 152.980053 -189.98836828 152.98913013 -192.92985535 153.00402832 C-193.7727797 152.99353942 -194.61570405 152.98305053 -195.48417157 152.97224379 C-205.027821 153.07930163 -212.79334095 156.69223705 -219.66015625 163.21875 C-227.24656377 171.94237048 -227.79410044 181.56147048 -227.76760864 192.6322937 C-227.76916863 193.63803944 -227.77072862 194.64378517 -227.77233589 195.68000805 C-227.77631673 199.04173262 -227.77316759 202.40341183 -227.77001953 205.76513672 C-227.77137481 208.17830939 -227.77315546 210.59148186 -227.77532959 213.00465393 C-227.77941435 218.87217806 -227.77881913 224.73969046 -227.77591695 230.60721426 C-227.77365712 235.37343977 -227.77335291 240.1396617 -227.77444077 244.9058876 C-227.774594 245.58461396 -227.77474723 246.26334031 -227.77490511 246.96263412 C-227.77522483 248.34144266 -227.77554905 249.72025119 -227.7758777 251.09905972 C-227.77872686 264.0167245 -227.77545363 276.93438217 -227.77007733 289.85204579 C-227.76560374 300.94466168 -227.76639088 312.03726711 -227.77099609 323.12988281 C-227.77634137 336.01113149 -227.77845861 348.89237396 -227.77538383 361.77362359 C-227.77506527 363.14548055 -227.7747509 364.51733752 -227.77444077 365.88919449 C-227.77428649 366.56419588 -227.77413221 367.23919727 -227.77397326 367.93465324 C-227.77310842 372.70021015 -227.77457016 377.46576313 -227.77692032 382.23131943 C-227.78000902 388.63511396 -227.77782687 395.03889332 -227.77202606 401.44268608 C-227.77069777 403.79983042 -227.77109373 406.15697641 -227.77328873 408.5141201 C-227.77599734 411.71670162 -227.77262276 414.91921833 -227.76760864 418.12179565 C-227.76983936 419.06739031 -227.77207009 420.01298496 -227.77436841 420.987234 C-228.17761559 425.06434919 -228.17761559 425.06434919 -226.640625 428.49609375 C-223.58755848 428.6001691 -220.55636787 428.63970235 -217.50268555 428.63793945 C-216.54336121 428.64141388 -215.58403687 428.64488831 -214.59564209 428.64846802 C-212.50468721 428.65584004 -210.41372443 428.66117768 -208.32275963 428.66475868 C-205.01562964 428.6719003 -201.7086501 428.68754943 -198.40156555 428.70610046 C-188.99600287 428.7586789 -179.59052092 428.80656164 -170.18481445 428.82202148 C-164.4387732 428.83208738 -158.69310729 428.86137881 -152.94721413 428.90334129 C-150.7539637 428.91567837 -148.56066032 428.92076764 -146.36737633 428.91854286 C-143.30009115 428.91619731 -140.2338874 428.93830073 -137.16674805 428.96606445 C-136.25697708 428.95946304 -135.34720612 428.95286163 -134.40986633 428.94606018 C-128.25893579 429.03767624 -128.25893579 429.03767624 -125.10383606 431.37687683 C-123.35964457 433.90304698 -122.71574155 435.41631504 -122.640625 438.49609375 C-124.83465485 443.09310868 -124.83465485 443.09310868 -127.640625 444.49609375 C-129.00575242 444.59593883 -130.3755569 444.6354513 -131.74430847 444.64326477 C-133.03324509 444.65399773 -133.03324509 444.65399773 -134.34822083 444.66494751 C-135.29315903 444.66763641 -136.23809723 444.67032532 -137.21166992 444.6730957 C-138.20533569 444.6796669 -139.19900146 444.6862381 -140.22277832 444.69300842 C-143.52221751 444.71277249 -146.82161109 444.72441189 -150.12109375 444.734375 C-151.24687647 444.73845053 -152.37265919 444.74252605 -153.53255653 444.74672508 C-159.49281253 444.76760058 -165.45304541 444.78189505 -171.41333008 444.79125977 C-177.56929423 444.80231814 -183.7248963 444.83670759 -189.88073254 444.87643147 C-194.61370005 444.90258437 -199.34658122 444.91095053 -204.07961464 444.91454124 C-206.34858962 444.91941179 -208.61756062 444.93103901 -210.88646507 444.94957924 C-214.06547012 444.97393829 -217.24353753 444.97301102 -220.42260742 444.96606445 C-221.82483299 444.98527954 -221.82483299 444.98527954 -223.25538635 445.00488281 C-230.74289146 444.94535402 -234.56806839 443.14107802 -240.2997303 438.20702553 C-244.26993261 433.25552036 -243.32302665 426.79821141 -243.26881409 420.77555847 C-243.27386079 419.35785392 -243.28109059 417.94015575 -243.29031223 416.5224722 C-243.30924498 412.63104777 -243.29699534 408.74025158 -243.2795893 404.84884298 C-243.26622324 400.65033929 -243.28164981 396.45192799 -243.29341125 392.25343323 C-243.31179938 384.02946901 -243.30326712 375.80574225 -243.28532303 367.5817854 C-243.27129986 360.89672876 -243.26740363 354.21173659 -243.2707653 347.52666664 C-243.27124275 346.57535382 -243.27172019 345.624041 -243.2722121 344.64390052 C-243.27323843 342.71131329 -243.27429379 340.77872607 -243.27537786 338.84613887 C-243.28394766 321.75244026 -243.26726242 304.65885627 -243.23754883 287.56518555 C-243.20872437 270.98277976 -243.20162109 254.40053919 -243.21704102 237.81811523 C-243.23380946 219.76078627 -243.23782975 201.70353578 -243.22033066 183.64620477 C-243.21848628 181.71979257 -243.21665156 179.79338037 -243.21482658 177.86696815 C-243.21391449 176.91915056 -243.2130024 175.97133296 -243.21206268 174.99479362 C-243.20646024 168.32040566 -243.20976186 161.64605603 -243.21637154 154.97167015 C-243.22411055 146.83375461 -243.21733211 138.69600161 -243.1921965 130.55811878 C-243.17971304 126.40710982 -243.17354076 122.25635372 -243.18473816 118.10533524 C-243.19480296 114.3022964 -243.18627372 110.49976107 -243.16315698 106.69678334 C-243.15558137 104.6756632 -243.16752899 102.65449868 -243.18026072 100.63340443 C-243.11376331 93.33517204 -242.32059867 87.84154856 -238.640625 81.49609375 C-238.22121519 80.75549703 -237.80180538 80.01490032 -237.36968619 79.25186127 C-234.93838873 75.07152549 -232.24552241 71.75766759 -228.640625 68.49609375 C-228.15078125 68.01398438 -227.6609375 67.531875 -227.15625 67.03515625 C-217.66959409 58.13576951 -205.48449384 55.20837598 -192.828125 55.17724609 C-191.88086044 55.16720047 -190.93359589 55.15715485 -189.95762634 55.14680481 C-186.85196494 55.11611487 -183.74638918 55.09897725 -180.640625 55.08203125 C-178.4772875 55.06330819 -176.31395721 55.04373393 -174.15063477 55.02334595 C-168.47573104 54.97213909 -162.80080367 54.93245216 -157.12579346 54.89520264 C-151.32729294 54.85509112 -145.52888982 54.80403143 -139.73046875 54.75390625 C-128.36725603 54.65728252 -117.00398818 54.57283449 -105.640625 54.49609375 C-105.31376709 53.53832031 -104.98690918 52.58054688 -104.65014648 51.59375 C-103.41848879 48.00121324 -102.16195721 44.41778103 -100.89819336 40.83642578 C-100.35731656 39.29285777 -99.82298055 37.7469801 -99.2956543 36.19873047 C-92.91275623 17.49086083 -92.91275623 17.49086083 -84.8805542 12.37509155 C-78.82926823 9.58082185 -72.04942085 10.10936802 -65.53125 10.16015625 C-62.97786199 10.14765403 -60.42447655 10.13461739 -57.87109375 10.12109375 C-53.86594991 10.11715022 -49.86106526 10.12058556 -45.85595703 10.13574219 C-41.97650648 10.14428201 -38.0981078 10.1226931 -34.21875 10.09765625 C-33.01768616 10.11100006 -31.81662231 10.12434387 -30.5791626 10.13809204 C-24.31642842 10.33941773 -24.31642842 10.33941773 -19.29199219 7.20849609 C-18.74704102 6.31340332 -18.20208984 5.41831055 -17.640625 4.49609375 C-11.81910445 0.19076694 -7.11130346 -0.08316028 0 0 Z " fill="#010101" transform="translate(242.640625,34.50390625)"/>
<path d="M0 0 C0.75172936 0.00018436 1.50345872 0.00036873 2.27796775 0.00055867 C3.07088149 -0.00311801 3.86379523 -0.0067947 4.68073666 -0.0105828 C7.35844252 -0.02166449 10.03610965 -0.02547106 12.71383506 -0.02927226 C14.62540656 -0.03553361 16.53697683 -0.04218011 18.44854575 -0.04918498 C23.65739672 -0.06662725 28.86623848 -0.07715584 34.07511145 -0.08539051 C37.32736638 -0.09053457 40.57961843 -0.09661062 43.83187133 -0.10290164 C54.0012225 -0.12196401 64.17056636 -0.13619205 74.33993196 -0.14451361 C86.08982234 -0.15428628 97.83952433 -0.18060228 109.58934832 -0.2210145 C118.66284953 -0.25115357 127.73629669 -0.26598045 136.809847 -0.26929462 C142.23268747 -0.27164795 147.65532695 -0.28064487 153.07811385 -0.30575579 C158.18100734 -0.32900235 163.28356703 -0.33328346 168.3864997 -0.32299441 C170.25939573 -0.32249808 172.13230799 -0.32884705 174.00515395 -0.34255046 C176.56296459 -0.36021804 179.11957072 -0.35318891 181.67738181 -0.3400175 C182.41795756 -0.35098674 183.15853331 -0.36195599 183.92155075 -0.37325764 C189.79117406 -0.3003251 193.33193026 1.70207859 197.43966514 5.78054219 C201.25073691 10.6495369 201.9204879 12.73826407 201.92656165 18.92074376 C201.92861429 19.62868245 201.93066692 20.33662113 201.93278176 21.0660125 C201.93848173 23.46226688 201.93699083 25.85846432 201.93557578 28.25472432 C201.93815771 29.98046631 201.94117038 31.70620769 201.94457918 33.43194824 C201.9526728 38.19310828 201.95444007 42.95425325 201.95517665 47.71541935 C201.95702312 52.84302202 201.96456841 57.9706168 201.97131187 63.09821492 C201.98491266 74.31921481 201.99092267 85.54021113 201.99532253 96.76121789 C201.99808211 103.76351734 202.00231894 110.7658154 202.0068267 117.76811391 C202.01902184 137.14326435 202.02932054 156.51841367 202.03270179 175.89356786 C202.03292136 177.13441736 202.03314092 178.37526686 202.03336714 179.65371786 C202.03358542 180.89759211 202.0338037 182.14146636 202.03402859 183.42303377 C202.03447206 185.9437332 202.03491862 188.46443262 202.03536826 190.98513204 C202.03558969 192.23549476 202.03581112 193.48585749 202.03603926 194.77410999 C202.03998815 215.03927323 202.05744385 235.30440053 202.08072779 255.56954989 C202.10442262 276.35961176 202.1169028 297.14965558 202.11806971 317.93973118 C202.11898754 329.61897008 202.12476703 341.29816217 202.14288932 352.9773882 C202.15826515 362.92190614 202.1634257 372.86636279 202.15515122 382.81089035 C202.15123572 387.88701166 202.15221806 392.96300949 202.16620857 398.03911573 C202.1788937 402.68398387 202.17779759 407.32863505 202.16561785 411.97350267 C202.16365147 413.65590933 202.16678246 415.33833109 202.17546222 417.02071652 C202.18650096 419.30452633 202.17910514 421.58756313 202.16707069 423.87135106 C202.16766778 425.14081114 202.16826486 426.41027122 202.16888005 427.71819979 C201.57870052 433.13374261 199.50613507 437.03417391 195.29513389 440.46022969 C194.70732139 440.95136251 194.11950889 441.44249532 193.51388389 441.94851094 C190.07175618 444.35017733 186.95272723 444.2744505 182.89299709 444.27915746 C181.65288531 444.2829986 180.41277353 444.28683975 179.1350826 444.29079729 C177.75142634 444.29001701 176.36777013 444.28913821 174.98411399 444.28817159 C173.52007067 444.29075449 172.05602805 444.29376744 170.59198642 444.29717499 C166.55892468 444.30525679 162.52588073 444.30703521 158.49281186 444.30777246 C154.14713934 444.30962092 149.8014761 444.31716712 145.45580894 444.32390767 C135.9498241 444.33749902 126.44384347 444.34351672 116.93785053 444.34791833 C111.00578072 444.35067891 105.07371254 444.35491588 99.14164382 444.3594225 C82.72684072 444.3716153 66.31203893 444.38191519 49.8972314 444.3852976 C48.32089582 444.38562695 48.32089582 444.38562695 46.71271509 444.38596295 C45.13255449 444.38629036 45.13255449 444.38629036 43.52047145 444.3866244 C41.38570724 444.38706787 39.25094302 444.38751443 37.11617881 444.38796407 C36.05725631 444.3881855 34.99833382 444.38840693 33.90732276 444.38863507 C16.73833515 444.39258543 -0.43061007 444.41004666 -17.59958129 444.43332359 C-35.21433058 444.45701277 -52.82905857 444.4694983 -70.44382405 444.47066551 C-80.33893586 444.47158355 -90.23399243 444.47736823 -100.12908906 444.49548513 C-108.55263839 444.51085319 -116.9761154 444.51602607 -125.39967608 444.50774702 C-129.6998878 444.50382904 -133.99995374 444.50482585 -138.30014771 444.51880437 C-142.23370528 444.53147457 -146.16700649 444.53040692 -150.10056335 444.51821366 C-151.52651361 444.51624467 -152.9524816 444.51939011 -154.37840687 444.52805802 C-156.31120464 444.53906689 -158.24408622 444.52991568 -160.17688817 444.51966649 C-161.25214881 444.52026358 -162.32740945 444.52086067 -163.43525374 444.52147585 C-166.57402087 444.097914 -167.92920515 443.30947132 -170.20486611 441.14772969 C-171.43363368 438.51465633 -171.27589036 437.39039588 -170.45486611 434.58522969 C-169.19007496 432.11888694 -168.38917274 430.82383875 -166.20486611 429.14772969 C-163.58279902 428.76987284 -163.58279902 428.76987284 -160.35681885 428.76576215 C-159.12879056 428.75692231 -157.90076227 428.74808247 -156.63552099 428.73897475 C-155.26551771 428.74429591 -153.89551547 428.74989137 -152.5255143 428.7557314 C-151.07582817 428.75101113 -149.62614581 428.74497364 -148.1764701 428.73772758 C-144.18316866 428.72158261 -140.1900612 428.72414511 -136.1967389 428.72964889 C-131.89404793 428.73232298 -127.59141234 428.71775391 -123.28874367 428.70520955 C-115.83064441 428.6857961 -108.37259579 428.67724597 -100.91447228 428.67590886 C-90.13011983 428.67387278 -79.34585356 428.6544327 -68.56153001 428.63051094 C-51.06439588 428.59208053 -33.56726756 428.56628617 -16.07010049 428.54909688 C0.92697814 428.53235851 17.92404409 428.51218034 34.92111045 428.48562032 C35.96819233 428.4839869 37.0152742 428.48235348 38.09408583 428.48067056 C49.51618868 428.46271691 60.93828854 428.44337238 72.36038619 428.42236692 C73.3631585 428.4205255 74.36593081 428.41868408 75.39909016 428.41678686 C79.40682797 428.40940851 83.41456574 428.40201512 87.42230318 428.39444305 C99.17545982 428.37227208 110.92860402 428.35448394 122.68177764 428.34449024 C130.04978009 428.33812448 137.41777351 428.32858765 144.78576882 428.31652169 C149.04302669 428.30971622 153.30026997 428.30465752 157.55753356 428.30393583 C161.44830327 428.30327142 165.33903945 428.29813527 169.22979902 428.28933455 C170.64357867 428.28697345 172.05736238 428.28634009 173.4711435 428.28753136 C175.3803541 428.28891594 177.28956619 428.28367373 179.19876891 428.27801496 C180.26301766 428.27698313 181.32726641 428.27595131 182.42376512 428.27488822 C184.75062803 428.41497889 184.75062803 428.41497889 185.79513389 427.14772969 C185.8934173 425.3971949 185.92068995 423.6426519 185.92097503 421.88936025 C185.92358278 420.74194875 185.92619052 419.59453726 185.92887729 418.41235572 C185.92664657 417.13582869 185.92441585 415.85930166 185.92211753 414.544092 C185.9232684 413.18688189 185.92485569 411.82967209 185.92684478 410.47246295 C185.9310428 406.72552675 185.92894529 402.97861582 185.92585856 399.2316795 C185.92360659 395.19755532 185.92708305 391.16343564 185.92983848 387.12931234 C185.93429736 379.21958257 185.93331919 371.30986226 185.93042584 363.40013212 C185.92817227 356.97472419 185.92785908 350.54931893 185.92894965 344.12391073 C185.92910289 343.21124109 185.92925612 342.29857145 185.929414 341.35824516 C185.9297337 339.50447943 185.93005792 337.65071369 185.93038659 335.79694796 C185.93324172 318.39270102 185.92995383 300.98845933 185.92458622 283.58421326 C185.92011815 268.63354032 185.92089408 253.68287515 185.92550498 238.73220235 C185.93085015 221.39246363 185.93296703 204.05272953 185.92989272 186.71299011 C185.92957415 184.86584296 185.92925978 183.01869581 185.92894965 181.17154866 C185.92879538 180.26259209 185.9286411 179.35363551 185.92848215 178.41713479 C185.92761682 171.99553978 185.92908021 165.57394767 185.93142921 159.15235311 C185.93422677 151.33218386 185.93348987 143.51202465 185.92814846 135.69185656 C185.92551085 131.69789457 185.92450738 127.70394935 185.92779762 123.70998746 C185.93075937 120.05969567 185.92916981 116.40943634 185.92382006 112.75914752 C185.92215917 110.80046622 185.92545452 108.84178269 185.92887729 106.88310367 C185.92496567 105.16198643 185.92496567 105.16198643 185.92097503 103.40609914 C185.92081268 102.40759702 185.92065032 101.40909491 185.92048305 100.38033515 C186.04545069 98.1759275 186.04545069 98.1759275 184.79513389 97.14772969 C181.77259396 97.04366931 178.77215149 97.00412072 175.74899131 97.00588399 C174.32463516 97.00067235 174.32463516 97.00067235 172.87150413 96.99535543 C170.80183024 96.98798347 168.73214836 96.9826458 166.66246444 96.97906476 C163.38893873 96.971923 160.11556499 96.95627374 156.84208518 96.93772298 C147.53210377 96.88514535 138.22220392 96.8372622 128.91207725 96.82180196 C123.22438892 96.81173575 117.53707974 96.78244352 111.84954101 96.74048215 C109.67861958 96.7281455 107.50764464 96.72305573 105.33668929 96.72528058 C102.30053301 96.72762629 99.26546904 96.70552166 96.22946006 96.67775899 C94.87882972 96.68766111 94.87882972 96.68766111 93.50091392 96.69776326 C87.44116883 96.60658889 87.44116883 96.60658889 84.24064475 94.33335286 C82.09188776 91.08441632 82.18447596 88.94737903 82.79513389 85.14772969 C84.90942217 82.75030599 86.63280131 81.35010311 89.83576232 80.79243642 C92.38296838 80.65434341 94.89996098 80.65321846 97.45065147 80.69362813 C98.90015189 80.69275197 98.90015189 80.69275197 100.37893516 80.69185811 C103.56621325 80.69464009 106.75255084 80.72573823 109.93966514 80.75710469 C112.15211823 80.76456666 114.36457795 80.7702598 116.57704002 80.77425557 C122.3952448 80.78951528 128.21304907 80.82880049 134.0310958 80.87307149 C139.96996484 80.91401663 145.90889871 80.932265 151.84786826 80.95241719 C163.49713261 80.99529402 175.14609992 81.06354982 186.79513389 81.14772969 C186.68778432 72.82035005 186.57518239 64.49306539 186.45579463 56.16585046 C186.40053033 52.2995696 186.34710489 48.43328122 186.29781944 44.56691915 C186.25022739 40.83862883 186.19788674 37.11043317 186.14219314 33.38225538 C186.12174611 31.95686037 186.10303698 30.53143937 186.08605987 29.10599881 C186.06206793 27.11602428 186.03143253 25.12613315 186.00045615 23.13625509 C185.98491187 22.00152257 185.96936759 20.86679006 185.95335227 19.69767171 C186.08162862 17.21357132 186.08162862 17.21357132 184.79513389 16.14772969 C182.36311741 16.04651974 179.95925946 16.0105929 177.52662498 16.01642781 C176.75680142 16.0143121 175.98697786 16.01219639 175.19382632 16.01001656 C172.59436212 16.00398823 169.99494607 16.00501872 167.39547569 16.00588399 C165.53977212 16.00285437 163.6840693 15.99933346 161.82836753 15.99535543 C157.82212266 15.98745083 153.81588676 15.98231566 149.80963546 15.97906476 C143.47809826 15.97316944 137.14661772 15.95664321 130.81510764 15.93772298 C128.65012107 15.93138516 126.48513446 15.92505954 124.32014781 15.91874582 C123.23572418 15.91558 122.15130055 15.91241419 121.0340156 15.90915245 C106.28651108 15.86702541 91.53903244 15.83409538 76.79147178 15.82180196 C66.85359341 15.81343254 56.91585461 15.79098216 46.97804606 15.75244629 C41.71514707 15.73264528 36.45245691 15.72029436 31.18951827 15.72528058 C26.2392349 15.72991322 21.28934755 15.71619762 16.33914405 15.68826848 C14.52025939 15.68133293 12.70133398 15.68125541 10.8824504 15.68846875 C8.40268938 15.69731113 5.9242473 15.6817396 3.44459373 15.6599825 C2.36001011 15.67264631 2.36001011 15.67264631 1.25351572 15.68556595 C-2.14347443 15.63029793 -3.9065274 15.37950466 -6.6243636 13.26805764 C-8.50254354 10.74837964 -9.12808042 9.29594291 -9.20486611 6.14772969 C-6.6087589 0.95551528 -5.74689492 0.03781071 0 0 Z " fill="#000000" transform="translate(309.20486611127853,34.85227030515671)"/>
<path d="M0 0 C4.79743459 3.38149864 6.91400886 9.17949066 9.42578125 14.296875 C10.23112305 15.89015625 10.23112305 15.89015625 11.05273438 17.515625 C12.42074933 20.22750332 13.77180216 22.94680367 15.11328125 25.671875 C15.60828125 26.661875 15.60828125 26.661875 16.11328125 27.671875 C18.53213779 28.28225569 18.53213779 28.28225569 21.46875 28.63671875 C22.56638672 28.79720703 23.66402344 28.95769531 24.79492188 29.12304688 C27.11246761 29.44453372 29.43017376 29.76486643 31.74804688 30.08398438 C44.68345544 31.97936531 44.68345544 31.97936531 49.42578125 37.234375 C51.8735382 40.77002393 52.29380148 42.70557888 52.36328125 46.984375 C52.3890625 47.92925781 52.41484375 48.87414062 52.44140625 49.84765625 C51.83923022 55.0306714 48.90481034 58.12655647 45.03125 61.38671875 C36.80896526 67.99311674 36.80896526 67.99311674 31.50146484 76.73242188 C31.29389352 80.99455297 32.65071503 84.73303286 34.11328125 88.671875 C35.79396078 97.10759343 36.62891585 104.62305109 31.6953125 112.015625 C28.39856708 115.46703255 24.8529753 117.19421919 20.11328125 117.546875 C12.29250303 117.45900109 5.99601738 113.33739611 -0.58789062 109.49755859 C-1.45865234 108.99691895 -2.32941406 108.4962793 -3.2265625 107.98046875 C-4.00378662 107.51439209 -4.78101074 107.04831543 -5.58178711 106.56811523 C-8.49443208 105.43557422 -9.930779 105.7470643 -12.88671875 106.671875 C-14.98559245 107.56925105 -14.98559245 107.56925105 -16.98828125 108.703125 C-17.725625 109.10144531 -18.46296875 109.49976563 -19.22265625 109.91015625 C-19.97804688 110.32652344 -20.7334375 110.74289062 -21.51171875 111.171875 C-23.02364785 111.99679577 -24.53662769 112.81979439 -26.05078125 113.640625 C-26.7154541 114.00607422 -27.38012695 114.37152344 -28.06494141 114.74804688 C-33.12239472 117.31269487 -38.34900522 117.47623562 -43.88671875 116.671875 C-48.25425099 114.47239833 -50.45498587 111.43785269 -52.82421875 107.234375 C-54.78260876 100.66800848 -53.67478424 94.61484857 -52.38671875 88.046875 C-52.10134775 86.57631455 -51.81998748 85.10496917 -51.54296875 83.6328125 C-51.41728516 82.99134277 -51.29160156 82.34987305 -51.16210938 81.68896484 C-50.39557686 76.88115832 -50.39557686 76.88115832 -52.3996582 72.63891602 C-53.092771 71.99108154 -53.78588379 71.34324707 -54.5 70.67578125 C-55.25345703 69.95197266 -56.00691406 69.22816406 -56.78320312 68.48242188 C-57.97913086 67.36963867 -57.97913086 67.36963867 -59.19921875 66.234375 C-70.08164331 56.01257343 -70.08164331 56.01257343 -71.35546875 49.14453125 C-71.42243514 43.97974811 -71.02148426 40.23133096 -67.53198242 36.25195312 C-61.69811065 30.64922007 -54.2940105 29.87467704 -46.57421875 29.109375 C-44.61855187 28.9116396 -42.66399544 28.7024978 -40.7109375 28.48046875 C-39.4283606 28.35369751 -39.4283606 28.35369751 -38.11987305 28.22436523 C-35.44019296 27.56140295 -34.56751817 26.8380553 -32.88671875 24.671875 C-31.66189999 22.55318231 -31.66189999 22.55318231 -30.58203125 20.1796875 C-29.95361328 18.87451172 -29.95361328 18.87451172 -29.3125 17.54296875 C-28.44976522 15.72163977 -27.5903524 13.89873327 -26.734375 12.07421875 C-23.8190162 6.03844532 -21.32600058 1.39151591 -15.13671875 -1.703125 C-9.62670302 -2.76274341 -5.10685432 -2.34956762 0 0 Z " fill="#040201" transform="translate(405.88671875,308.328125)"/>
<path d="M0 0 C0.78792777 0.00582568 1.57585554 0.01165137 2.38765991 0.01765358 C3.22241344 0.01594473 4.05716697 0.01423589 4.91721606 0.01247525 C7.73027489 0.00916606 10.54309818 0.02020746 13.35613525 0.03111184 C15.36625686 0.03167564 17.37637887 0.03135999 19.38650024 0.03022683 C24.8573175 0.02965112 30.32804773 0.04144067 35.7988447 0.05537474 C41.51104216 0.06784581 47.22324145 0.06904973 52.93545043 0.07142556 C63.75852276 0.07765101 74.58155486 0.0940762 85.40460944 0.11412454 C97.72364195 0.13645045 110.04267633 0.14746863 122.36172402 0.15751541 C147.708679 0.17844153 173.05559823 0.21363814 198.40252197 0.25816262 C197.09222325 4.05059363 195.77891131 7.84197423 194.46502197 11.63316262 C194.09183837 12.71339699 193.71865478 13.79363137 193.33416259 14.90660012 C192.97644775 15.93785012 192.61873291 16.96910012 192.25017822 18.03160012 C191.92025878 18.9847007 191.59033935 19.93780129 191.25042236 20.91978371 C190.40252197 23.25816262 190.40252197 23.25816262 189.40252197 25.25816262 C124.39252197 25.25816262 59.38252197 25.25816262 -7.59747803 25.25816262 C-7.59747803 0.04233713 -7.59747803 0.04233713 0 0 Z " fill="#E2F3FE" transform="translate(68.59747803211212,146.7418373823166)"/>
<path d="M0 0 C2.9861152 2.73980109 4.77524917 5.1406331 6.40234375 8.84375 C6.81806641 9.76027344 7.23378906 10.67679687 7.66210938 11.62109375 C8.51173016 13.53892076 9.3580917 15.458195 10.20117188 17.37890625 C10.61818359 18.29542969 11.03519531 19.21195312 11.46484375 20.15625 C12.01579712 21.40631836 12.01579712 21.40631836 12.57788086 22.68164062 C15.01854296 26.6604436 17.62029527 28.63889156 22.13793945 29.82128906 C23.28480225 29.96791992 24.43166504 30.11455078 25.61328125 30.265625 C26.86044922 30.43320312 28.10761719 30.60078125 29.39257812 30.7734375 C30.68615234 30.93070312 31.97972656 31.08796875 33.3125 31.25 C34.63886781 31.42298337 35.96504332 31.59744808 37.29101562 31.7734375 C40.52575094 32.19689376 43.76166741 32.60516655 47 33 C46.46631047 36.96622031 44.6752903 38.54850072 41.74609375 41.16015625 C40.46508789 42.3522168 40.46508789 42.3522168 39.15820312 43.56835938 C37.35582056 45.22065122 35.53814528 46.85642643 33.70507812 48.47460938 C28.89242394 52.89499877 28.89242394 52.89499877 26.35791016 58.74194336 C26.31560366 61.58518875 26.55645554 64.19292087 27 67 C27.15746704 68.23351196 27.15746704 68.23351196 27.31811523 69.49194336 C27.64943966 71.82317553 28.0578075 74.12495275 28.5 76.4375 C29.28096484 80.66948514 30 84.67472839 30 89 C26.45883915 88.42919527 23.78057456 87.52720319 20.671875 85.75 C19.47111328 85.08484375 19.47111328 85.08484375 18.24609375 84.40625 C16.59387824 83.47542436 14.94535869 82.53800499 13.30078125 81.59375 C8.05324875 78.70550811 3.11543615 76.16487453 -3 77 C-7.02171307 78.58034795 -10.62573042 80.69759482 -14.3125 82.9375 C-16.24186377 84.07879582 -18.17530381 85.21323641 -20.11328125 86.33984375 C-20.95673096 86.84894287 -21.80018066 87.35804199 -22.66918945 87.88256836 C-25 89 -25 89 -29 89 C-28.52541842 85.56185066 -28.04454738 82.1246099 -27.5625 78.6875 C-27.42779297 77.71103516 -27.29308594 76.73457031 -27.15429688 75.72851562 C-27.02216797 74.79072266 -26.89003906 73.85292969 -26.75390625 72.88671875 C-26.63345947 72.02264404 -26.5130127 71.15856934 -26.38891602 70.26831055 C-26 68 -26 68 -25 65 C-24.2202752 60.55556862 -24.08013681 58.34942195 -26.65625 54.5703125 C-31.36165653 49.25187765 -36.5976044 44.4887974 -41.93359375 39.8125 C-43.33043823 38.58729047 -44.68616727 37.31383273 -46 36 C-46 35.01 -46 34.02 -46 33 C-45.17274414 32.88930176 -44.34548828 32.77860352 -43.49316406 32.66455078 C-40.41358135 32.24901035 -37.33495824 31.8270921 -34.25683594 31.40087891 C-32.27345573 31.12822445 -30.28907291 30.86289588 -28.3046875 30.59765625 C-27.05429687 30.42363281 -25.80390625 30.24960937 -24.515625 30.0703125 C-23.36352539 29.91320801 -22.21142578 29.75610352 -21.02441406 29.59423828 C-17.25674695 28.86387103 -17.25674695 28.86387103 -14 27 C-12.27072449 24.35336816 -12.27072449 24.35336816 -10.80078125 21.15234375 C-10.23166016 19.99025391 -9.66253906 18.82816406 -9.07617188 17.63085938 C-8.4878221 16.39995894 -7.89993691 15.16883635 -7.3125 13.9375 C-6.14555545 11.52817142 -4.97280809 9.12170844 -3.80078125 6.71484375 C-3.02988159 5.10790649 -3.02988159 5.10790649 -2.2434082 3.46850586 C-1 1 -1 1 0 0 Z " fill="#F9BE41" transform="translate(396,321)"/>
<path d="M0 0 C0.86590167 -0.00170885 1.73180334 -0.0034177 2.62394446 -0.00517833 C5.52442026 -0.00847168 8.42466454 0.00252797 11.32511902 0.01345825 C13.40464777 0.0140224 15.48417692 0.01370574 17.56370544 0.01257324 C23.20995834 0.01199887 28.85612645 0.02376698 34.50235963 0.03772116 C40.40272229 0.05021433 46.30308685 0.0513979 52.20346069 0.05377197 C63.37705063 0.05999089 74.55060148 0.07640731 85.7241742 0.09647095 C98.44471982 0.11881711 111.1652673 0.12982016 123.88582766 0.13986182 C150.05335727 0.16077316 176.22085216 0.19595717 202.38835144 0.24050903 C202.38835144 1.56050903 202.38835144 2.88050903 202.38835144 4.24050903 C200.5412558 4.2493084 200.5412558 4.2493084 198.65684509 4.25828552 C187.06163944 4.31545657 175.46662235 4.38818877 163.87160873 4.47622395 C157.9102437 4.52098366 151.9489479 4.56022751 145.98747253 4.58694458 C140.23613149 4.61292153 134.48505607 4.65328431 128.73387909 4.7036953 C126.5378423 4.72040197 124.34175953 4.73189251 122.14566803 4.73812294 C119.07360881 4.7477226 116.00223503 4.77573271 112.93034363 4.80813599 C112.01900162 4.8067009 111.10765961 4.80526581 110.16870117 4.80378723 C106.60223189 4.85711689 104.06905388 4.89744828 100.85447693 6.51753235 C99.03446597 8.3980642 99.03446597 8.3980642 98.38835144 12.24050903 C91.78835144 12.24050903 85.18835144 12.24050903 78.38835144 12.24050903 C77.72835144 10.59050903 77.06835144 8.94050903 76.38835144 7.24050903 C73.01602556 4.6134111 69.08760591 4.95121361 64.99284363 4.96585083 C64.25408493 4.9607399 63.51532623 4.95562897 62.75418091 4.95036316 C60.31444671 4.93647614 57.87499545 4.93742384 55.43522644 4.93972778 C53.73374833 4.93583913 52.03227118 4.93150411 50.33079529 4.92674255 C46.76319739 4.91928136 43.19569844 4.91956999 39.62809753 4.92483521 C35.07084443 4.93061659 30.5139995 4.91373076 25.95681381 4.89049053 C22.44106198 4.87570674 18.92540724 4.87488802 15.40962982 4.87800026 C13.73041732 4.87748895 12.05119912 4.87228706 10.37201691 4.86218834 C8.0148936 4.84975669 5.6585496 4.8566561 3.30143738 4.86819458 C2.6164769 4.86055084 1.93151642 4.8529071 1.22579956 4.84503174 C-4.54996893 4.90706304 -10.0783586 6.1767091 -14.63508606 9.88894653 C-15.08110168 10.45871216 -15.52711731 11.02847778 -15.98664856 11.61550903 C-16.44813293 12.18011841 -16.90961731 12.74472778 -17.38508606 13.32644653 C-18.80053226 15.53526385 -19.6647348 17.79936436 -20.61164856 20.24050903 C-21.7020192 20.2410538 -22.79238983 20.24159857 -23.915802 20.24215984 C-50.44808943 20.25655587 -76.9802128 20.29957509 -103.5124054 20.3725996 C-116.34319459 20.40725125 -129.17387632 20.43260537 -142.00471497 20.43606567 C-153.18820546 20.4391053 -164.37150458 20.45959586 -175.55492115 20.5010336 C-181.47638405 20.52236511 -187.39757487 20.53496326 -193.31907654 20.52666283 C-198.89402837 20.51912391 -204.46842884 20.5349398 -210.04327965 20.56856918 C-212.08785057 20.57680425 -214.13247631 20.57655032 -216.17704201 20.56710625 C-218.97311182 20.55547088 -221.7673787 20.57462299 -224.56330872 20.60127258 C-225.36877797 20.59059932 -226.17424723 20.57992607 -227.00412464 20.56892937 C-234.2081711 20.6966687 -238.99681571 23.66731364 -244.06477356 28.65457153 C-246.56926754 34.46044393 -246.29262526 40.35948847 -246.36164856 46.61550903 C-246.40612122 48.57810669 -246.40612122 48.57810669 -246.45149231 50.58035278 C-246.52200574 53.8004663 -246.57479761 57.01986334 -246.61164856 60.24050903 C-247.63903137 60.38746216 -248.66641418 60.53441528 -249.72492981 60.68582153 C-258.72602831 62.09598637 -265.87889176 64.17786654 -273.61164856 69.24050903 C-274.60358215 69.87279419 -274.60358215 69.87279419 -275.61555481 70.51785278 C-276.96575548 71.39814603 -278.29287226 72.31380136 -279.61164856 73.24050903 C-279.88117981 70.46707153 -279.88117981 70.46707153 -279.61164856 67.24050903 C-274.40952255 61.5305833 -266.04881291 57.94861668 -258.61164856 56.24050903 C-256.27907254 56.1810652 -253.94387406 56.16861552 -251.61164856 56.24050903 C-251.63259583 55.58566528 -251.65354309 54.93082153 -251.67512512 54.25613403 C-251.75895239 51.25108575 -251.81051751 48.2462844 -251.86164856 45.24050903 C-251.911922 43.69556763 -251.911922 43.69556763 -251.96321106 42.11941528 C-252.06277264 34.30383148 -250.84723461 29.0098 -245.71711731 23.03347778 C-245.08418762 22.5036731 -244.45125793 21.97386841 -243.79914856 21.42800903 C-243.17395325 20.88531372 -242.54875793 20.34261841 -241.90461731 19.78347778 C-235.89038795 15.73642395 -230.92118989 14.80164539 -223.8354187 14.87974548 C-222.54625358 14.87590057 -222.54625358 14.87590057 -221.23104471 14.87197798 C-218.36431083 14.86705449 -215.49810894 14.88350929 -212.63142395 14.89993286 C-210.57130445 14.90077944 -208.51118404 14.90030338 -206.45106506 14.89860535 C-200.86686741 14.89774519 -195.28286337 14.91537447 -189.69871068 14.93632722 C-183.85975837 14.95509046 -178.02080154 14.95684419 -172.18182373 14.96040344 C-161.12869068 14.96972492 -150.07564673 14.99434018 -139.02255291 15.02445191 C-126.43739468 15.05799264 -113.85223218 15.07448112 -101.26704037 15.08953822 C-75.38186039 15.12088958 -49.49675947 15.17365217 -23.61164856 15.24050903 C-23.31814514 14.29272583 -23.02464172 13.34494263 -22.72224426 12.36843872 C-21.5298704 9.01018549 -20.49650274 7.73916376 -17.79914856 5.49050903 C-16.79948059 4.63199341 -16.79948059 4.63199341 -15.77961731 3.75613403 C-10.71303378 0.21409005 -6.04002541 -0.04363361 0 0 Z " fill="#C52854" transform="translate(293.6116485595703,111.75949096679688)"/>
<path d="M0 0 C1.32570511 0.00666183 1.32570511 0.00666183 2.67819214 0.01345825 C3.67907867 0.01360931 4.67996521 0.01376038 5.71118164 0.01391602 C7.33623123 0.02939987 7.33623123 0.02939987 8.99411011 0.04519653 C10.65456863 0.04944138 10.65456863 0.04944138 12.34857178 0.05377197 C15.89458898 0.06499384 19.44035636 0.09010213 22.98629761 0.11550903 C25.38603355 0.12553624 27.78577344 0.13466253 30.18551636 0.14285278 C36.07752911 0.16493971 41.96939552 0.19843697 47.86129761 0.24050903 C47.29584085 4.16015247 46.47797175 7.65879983 45.04879761 11.34988403 C44.51899292 12.72853638 44.51899292 12.72853638 43.97848511 14.13504028 C43.60981323 15.07734497 43.24114136 16.01964966 42.86129761 16.99050903 C42.49262573 17.94828247 42.12395386 18.90605591 41.74411011 19.89285278 C39.0517091 26.85968605 39.0517091 26.85968605 37.86129761 29.24050903 C21.03129761 29.24050903 4.20129761 29.24050903 -13.13870239 29.24050903 C-12.43736344 25.03247532 -11.82413502 21.98480854 -10.36135864 18.13113403 C-10.01266724 17.21203247 -9.66397583 16.29293091 -9.30471802 15.34597778 C-8.94055786 14.4036731 -8.57639771 13.46136841 -8.20120239 12.49050903 C-7.84090942 11.5327356 -7.48061646 10.57496216 -7.10940552 9.58816528 C-3.59247677 0.40399408 -3.59247677 0.40399408 0 0 Z " fill="#6DFDC5" transform="translate(167.13870239257813,60.759490966796875)"/>
<path d="M0 0 C1.33723114 -0.01051392 1.33723114 -0.01051392 2.70147705 -0.02124023 C5.64765593 -0.03884221 8.59287389 -0.02718963 11.5390625 -0.01367188 C13.58642766 -0.01636615 15.63379157 -0.02024804 17.68115234 -0.02526855 C21.97180363 -0.03116659 26.26212181 -0.02259067 30.55273438 -0.00390625 C36.05437738 0.01888331 41.55523988 0.00576189 47.05685425 -0.01819611 C51.28448372 -0.03264572 55.51192795 -0.0280519 59.73956299 -0.01768494 C61.76816907 -0.01501534 63.79679193 -0.01829556 65.82537842 -0.02760315 C68.66008088 -0.03775484 71.49351695 -0.02228697 74.328125 0 C75.16772766 -0.00809692 76.00733032 -0.01619385 76.87237549 -0.02453613 C80.50967648 0.02848161 82.70992481 0.18575725 85.68896484 2.36242676 C87.69492011 5.29317321 87.67205126 7.03422666 87.1640625 10.51757812 C85.38421845 13.65349383 84.64098043 14.35860548 81.1640625 15.51757812 C78.34601577 15.63460707 75.55178599 15.69568934 72.73291016 15.71044922 C71.87243576 15.71862671 71.01196136 15.7268042 70.12541199 15.73522949 C67.27632339 15.76005394 64.42728444 15.77659005 61.578125 15.79101562 C60.60521893 15.7963393 59.63231285 15.80166298 58.62992477 15.80714798 C53.48245786 15.83386399 48.33501511 15.85324572 43.1875 15.86767578 C37.86863616 15.88433946 32.55039001 15.9291361 27.23176003 15.98004723 C23.14310991 16.013679 19.05460737 16.02524859 14.96583176 16.03090286 C13.00499107 16.03762426 11.04416039 16.05286934 9.08345413 16.07679367 C6.33978877 16.10836732 3.59780278 16.10849417 0.85400391 16.10107422 C-0.36028542 16.12568222 -0.36028542 16.12568222 -1.59910583 16.15078735 C-5.82612512 16.10399138 -7.39005894 15.86519286 -10.84390259 13.17251587 C-12.8359375 10.51757812 -12.8359375 10.51757812 -13.3984375 7.45507812 C-11.96786462 -0.01569138 -6.57567577 -0.06341422 0 0 Z " fill="#050103" transform="translate(384.8359375,70.482421875)"/>
<path d="M0 0 C1.65 0 3.3 0 5 0 C3.68970128 3.79243101 2.37638934 7.58381161 1.0625 11.375 C0.68931641 12.45523438 0.31613281 13.53546875 -0.06835938 14.6484375 C-0.42607422 15.6796875 -0.78378906 16.7109375 -1.15234375 17.7734375 C-1.48226318 18.72653809 -1.81218262 19.67963867 -2.15209961 20.66162109 C-3 23 -3 23 -4 25 C-69.01 25 -134.02 25 -201 25 C-201 17.41 -201 9.82 -201 2 C-200.67 2 -200.34 2 -200 2 C-200 7.94 -200 13.88 -200 20 C-136.31 20 -72.62 20 -7 20 C-6.01 16.7 -5.02 13.4 -4 10 C-3.30332495 8.11268633 -2.58249412 6.23360649 -1.8125 4.375 C-1.29623047 3.11816406 -1.29623047 3.11816406 -0.76953125 1.8359375 C-0.51558594 1.23007813 -0.26164063 0.62421875 0 0 Z " fill="#B1D0E3" transform="translate(262,147)"/>
</svg>
